<?xml version="1.0" encoding="UTF-8" standalone="no"?>
<svg
   xmlns:dc="http://purl.org/dc/elements/1.1/"
   xmlns:cc="http://creativecommons.org/ns#"
   xmlns:rdf="http://www.w3.org/1999/02/22-rdf-syntax-ns#"
   xmlns:svg="http://www.w3.org/2000/svg"
   xmlns="http://www.w3.org/2000/svg"
   xmlns:xlink="http://www.w3.org/1999/xlink"
   xmlns:sodipodi="http://sodipodi.sourceforge.net/DTD/sodipodi-0.dtd"
   xmlns:inkscape="http://www.inkscape.org/namespaces/inkscape"
   viewBox="0 0 48 48"
   id="svg2"
   version="1.1"
   inkscape:version="0.91 r13725"
   sodipodi:docname="dynamics.svg"
   inkscape:export-filename="/home/josh/Code/scraps/files/chats/dynamics.png"
   inkscape:export-xdpi="900"
   inkscape:export-ydpi="900">
  <metadata
     id="metadata77">
    <rdf:RDF>
      <cc:Work
         rdf:about="">
        <dc:format>image/svg+xml</dc:format>
        <dc:type
           rdf:resource="http://purl.org/dc/dcmitype/StillImage" />
      </cc:Work>
    </rdf:RDF>
  </metadata>
  <sodipodi:namedview
     pagecolor="#ffffff"
     bordercolor="#666666"
     borderopacity="1"
     objecttolerance="10"
     gridtolerance="10"
     guidetolerance="10"
     inkscape:pageopacity="0"
     inkscape:pageshadow="2"
     inkscape:window-width="1260"
     inkscape:window-height="962"
     id="namedview75"
     showgrid="true"
     inkscape:zoom="9.8333333"
     inkscape:cx="11.826043"
     inkscape:cy="23.203786"
     inkscape:window-x="10"
     inkscape:window-y="52"
     inkscape:window-maximized="0"
     inkscape:current-layer="svg2">
    <inkscape:grid
       type="xygrid"
       id="grid3405" />
  </sodipodi:namedview>
  <defs
     id="defs4">
    <linearGradient
       inkscape:collect="always"
       id="linearGradient4209">
      <stop
         style="stop-color:#344152;stop-opacity:1;"
         offset="0"
         id="stop4211" />
      <stop
         style="stop-color:#3c4b5e;stop-opacity:1"
         offset="1"
         id="stop4213" />
    </linearGradient>
    <linearGradient
       id="linearGradient3764"
       x1="1"
       x2="47"
       gradientUnits="userSpaceOnUse"
       gradientTransform="translate(-48.000001,0.00221467)">
      <stop
         stop-color="#344152"
         stop-opacity="1"
         id="stop7" />
      <stop
         offset="1"
         stop-color="#3c4b5e"
         stop-opacity="1"
         id="stop9" />
    </linearGradient>
    <clipPath
       id="clipPath-781405200">
      <g
         transform="translate(0,-1004.3622)"
         id="g12">
        <rect
           rx="4"
           y="1005.36"
           x="1"
           height="46"
           width="46"
           fill="#1890d0"
           id="rect14" />
      </g>
    </clipPath>
    <clipPath
       id="clipPath-800815602">
      <g
         transform="translate(0,-1004.3622)"
         id="g17">
        <rect
           rx="4"
           y="1005.36"
           x="1"
           height="46"
           width="46"
           fill="#1890d0"
           id="rect19" />
      </g>
    </clipPath>
    <linearGradient
       inkscape:collect="always"
       xlink:href="#linearGradient4209"
       id="linearGradient4215"
       x1="0"
       y1="24"
       x2="48"
       y2="24"
       gradientUnits="userSpaceOnUse"
       gradientTransform="translate(-48,0)" />
  </defs>
  <rect
     style="opacity:1;fill:url(#linearGradient4215);fill-opacity:1;fill-rule:nonzero;stroke:none;stroke-width:0.5;stroke-linejoin:round;stroke-miterlimit:4;stroke-dasharray:none;stroke-opacity:1"
     id="rect3407"
     width="48"
     height="48"
     x="-48"
     y="0"
     transform="matrix(0,-1,1,0,0,0)" />
  <g
     id="g33"
     transform="matrix(1.0434783,0,0,1,-1.0434783,1)">
    <g
       clip-path="url(#clipPath-781405200)"
       id="g35">
      <g
         id="g37"
         style="opacity:0.1">
        <!-- color: #3c4b5e -->
        <g
           id="g39">
          <path
             d="m 7.313,13.875 c -1.438,0 -2.648,0.891 -3.844,1.688 C 2.305,16.34 1.242,17.059 0,17.094 l 0,0.5 C 1.395,17.559 2.551,16.778 3.719,16 c 1.195,-0.797 2.309,-1.531 3.594,-1.531 1.285,0 2.492,0.734 3.688,1.531 1.195,0.797 2.406,1.594 3.844,1.594 1.438,0 2.684,-0.797 3.875,-1.594 1.195,-0.797 2.402,-1.531 3.688,-1.531 1.285,0 2.402,0.734 3.605,1.531 1.188,0.797 2.375,1.594 3.813,1.594 1.441,0 2.648,-0.797 3.855,-1.594 1.188,-0.797 2.434,-1.531 3.719,-1.531 1.285,0 2.367,0.734 3.566,1.531 1.191,0.797 2.402,1.594 3.844,1.594 1.137,0 2.223,-0.492 3.219,-1.094 l 0,-0.625 c -1.043,0.664 -2.102,1.219 -3.219,1.219 -1.285,0 -2.367,-0.734 -3.566,-1.531 -1.188,-0.797 -2.395,-1.688 -3.844,-1.688 -1.438,0 -2.688,0.891 -3.875,1.688 -1.195,0.797 -2.402,1.531 -3.688,1.531 -1.285,0 -2.371,-0.734 -3.566,-1.531 -1.195,-0.797 -2.41,-1.688 -3.855,-1.688 -1.434,0 -2.77,0.891 -3.969,1.688 -1.188,0.797 -2.305,1.531 -3.594,1.531 -1.285,0 -2.492,-0.734 -3.691,-1.531 C 9.974,14.766 8.767,13.875 7.318,13.875 m 0,0"
             id="path41"
             inkscape:connector-curvature="0"
             style="fill:#000000;fill-opacity:1;fill-rule:nonzero;stroke:none" />
          <path
             d="m 8,18.03 c -1.234,0 -2.309,0.766 -3.313,1.563 -1.012,0.797 -1.945,1.531 -3,1.531 -0.582,0 -1.141,-0.23 -1.688,-0.563 l 0,0.594 c 0.523,0.273 1.094,0.469 1.688,0.469 1.234,0 2.277,-0.797 3.281,-1.594 1.01,-0.801 1.973,-1.531 3.03,-1.531 1.062,0 1.996,0.734 3,1.531 1.023,0.797 2.078,1.594 3.316,1.594 1.234,0 2.273,-0.797 3.281,-1.594 1.012,-0.801 1.973,-1.531 3.03,-1.531 1.059,0 1.996,0.734 3,1.531 1.012,0.797 2.078,1.594 3.313,1.594 1.238,0 2.277,-0.797 3.281,-1.594 1.012,-0.801 1.977,-1.531 3.03,-1.531 1.055,0 1.996,0.734 3,1.531 1.012,0.797 2.074,1.594 3.313,1.594 1.238,0 2.277,-0.797 3.281,-1.594 1.012,-0.801 1.977,-1.531 3.03,-1.531 0.746,0 1.441,0.379 2.125,0.875 l 0,-0.594 c -0.668,-0.426 -1.348,-0.75 -2.125,-0.75 -1.227,0 -2.309,0.766 -3.313,1.563 -1.012,0.797 -1.945,1.531 -3,1.531 -1.059,0 -2.027,-0.734 -3.03,-1.531 -1.012,-0.797 -2.047,-1.563 -3.281,-1.563 -1.234,0 -2.309,0.766 -3.313,1.563 -1.012,0.797 -1.945,1.531 -3,1.531 -1.055,0 -2.027,-0.734 -3.03,-1.531 -1.012,-0.797 -2.043,-1.563 -3.281,-1.563 -1.234,0 -2.305,0.766 -3.313,1.563 -1.012,0.797 -1.945,1.531 -3,1.531 -1.055,0 -2.027,-0.734 -3.03,-1.531 C 10.272,18.796 9.239,18.03 8.001,18.03 m 0.004,0"
             id="path43"
             inkscape:connector-curvature="0"
             style="fill:#000000;fill-opacity:1;fill-rule:nonzero;stroke:none" />
          <path
             d="m 1.406,22.06 c -0.523,0 -0.973,0.195 -1.406,0.5 l 0,0.656 c 0.465,-0.391 0.926,-0.688 1.406,-0.688 0.789,0 1.52,0.734 2.313,1.531 0.762,0.766 1.664,1.531 2.625,1.594 0.039,0.004 0.086,0 0.125,0 0.965,-0.063 1.863,-0.828 2.625,-1.594 0.793,-0.797 1.555,-1.531 2.344,-1.531 0.789,0 1.52,0.734 2.313,1.531 0.793,0.797 1.578,1.594 2.594,1.594 1.02,0 1.832,-0.797 2.625,-1.594 0.793,-0.797 1.555,-1.531 2.344,-1.531 0.789,0 1.523,0.734 2.316,1.531 0.793,0.797 1.73,1.594 2.75,1.594 1.016,0 1.801,-0.797 2.594,-1.594 0.793,-0.797 1.586,-1.531 2.375,-1.531 0.789,0 1.52,0.734 2.313,1.531 0.793,0.797 1.574,1.594 2.605,1.594 1.016,0 1.832,-0.797 2.625,-1.594 0.793,-0.797 1.555,-1.531 2.344,-1.531 0.789,0 1.523,0.734 2.316,1.531 0.793,0.797 1.727,1.594 2.75,1.594 0.645,0 1.191,-0.344 1.719,-0.781 l 0,-0.625 c -0.566,0.527 -1.137,0.906 -1.719,0.906 -0.789,0 -1.68,-0.734 -2.473,-1.531 -0.793,-0.797 -1.574,-1.563 -2.594,-1.563 -1.02,0 -1.832,0.766 -2.625,1.563 -0.793,0.801 -1.555,1.531 -2.344,1.531 -0.789,0 -1.523,-0.734 -2.316,-1.531 -0.793,-0.797 -1.578,-1.563 -2.594,-1.563 -1.02,0 -1.832,0.766 -2.625,1.563 -0.793,0.801 -1.566,1.531 -2.344,1.531 -0.789,0 -1.688,-0.734 -2.48,-1.531 -0.793,-0.797 -1.563,-1.563 -2.594,-1.563 -1.016,0 -1.801,0.766 -2.594,1.563 -0.793,0.801 -1.586,1.531 -2.375,1.531 -0.789,0 -1.52,-0.734 -2.313,-1.531 -0.793,-0.797 -1.574,-1.563 -2.594,-1.563 -1.016,0 -1.801,0.766 -2.594,1.563 -0.758,0.766 -1.621,1.473 -2.375,1.531 -0.035,0 -0.09,0.004 -0.125,0 C 5.589,25.094 4.788,24.387 4.03,23.622 3.237,22.825 2.425,22.059 1.405,22.059 m 0,0"
             id="path45"
             inkscape:connector-curvature="0"
             style="fill:#000000;fill-opacity:1;fill-rule:nonzero;stroke:none" />
          <path
             d="m 0.434,26.13 c -0.406,0 -0.77,0.117 -1.086,0.438 -0.316,0.32 -0.527,0.828 -0.816,1.23 -0.09,0.129 -0.184,0.27 -0.27,0.395 0.023,0.191 0.086,0.379 0.117,0.57 0.141,-0.195 0.266,-0.398 0.422,-0.613 0.289,-0.395 0.691,-0.813 0.969,-1.094 0.277,-0.281 0.41,-0.484 0.66,-0.484 0.246,0 0.578,0.203 0.848,0.484 0.277,0.273 0.531,0.691 0.816,1.094 0.289,0.402 0.652,0.73 0.969,1.051 0.313,0.316 0.563,0.652 0.965,0.652 0.406,0 0.77,-0.336 1.086,-0.652 0.316,-0.313 0.684,-0.645 0.969,-1.051 0.285,-0.395 0.535,-0.813 0.813,-1.094 0.277,-0.281 0.566,-0.484 0.816,-0.484 0.246,0 0.422,0.203 0.699,0.484 0.273,0.273 0.527,0.691 0.813,1.094 0.289,0.402 0.652,0.73 0.969,1.051 0.316,0.316 0.68,0.652 1.082,0.652 0.406,0 0.816,-0.336 1.125,-0.652 0.316,-0.313 0.527,-0.645 0.816,-1.051 0.285,-0.395 0.535,-0.813 0.813,-1.094 0.277,-0.281 0.566,-0.484 0.816,-0.484 0.246,0 0.578,0.203 0.848,0.484 0.277,0.273 0.531,0.691 0.816,1.094 0.289,0.402 0.496,0.73 0.816,1.051 0.313,0.316 0.719,0.652 1.121,0.652 0.406,0 0.77,-0.336 1.086,-0.652 0.316,-0.313 0.527,-0.645 0.813,-1.051 0.289,-0.395 0.691,-0.813 0.969,-1.094 0.277,-0.281 0.449,-0.484 0.699,-0.484 0.246,0 0.539,0.203 0.813,0.484 0.277,0.273 0.531,0.691 0.816,1.094 0.289,0.402 0.652,0.73 0.969,1.051 0.316,0.316 0.566,0.652 0.965,0.652 0.406,0 0.773,-0.336 1.086,-0.652 0.316,-0.313 0.691,-0.645 0.98,-1.051 0.273,-0.395 0.523,-0.813 0.813,-1.094 0.277,-0.281 0.605,-0.484 0.855,-0.484 0.246,0 0.383,0.203 0.66,0.484 0.27,0.273 0.563,0.691 0.848,1.094 0.289,0.402 0.613,0.73 0.93,1.051 0.316,0.316 0.73,0.652 1.125,0.652 0.402,0 0.773,-0.336 1.082,-0.652 0.316,-0.313 0.527,-0.645 0.816,-1.051 0.285,-0.395 0.578,-0.813 0.848,-1.094 0.277,-0.281 0.57,-0.484 0.816,-0.484 0.25,0 0.539,0.203 0.813,0.484 0.273,0.273 0.527,0.691 0.816,1.094 0.289,0.402 0.535,0.73 0.852,1.051 0.316,0.316 0.691,0.652 1.105,0.652 0.395,0 0.766,-0.336 1.082,-0.652 0.313,-0.313 0.563,-0.645 0.852,-1.051 0.285,-0.395 0.652,-0.813 0.941,-1.094 0.27,-0.281 0.453,-0.484 0.691,-0.484 0.25,0 0.535,0.203 0.813,0.484 0.273,0.273 0.566,0.691 0.855,1.094 0.281,0.402 0.605,0.73 0.938,1.051 0.316,0.316 0.566,0.652 0.969,0.652 0.402,0 0.816,-0.336 1.121,-0.652 0.316,-0.313 0.648,-0.645 0.941,-1.051 0.25,-0.344 0.5,-0.695 0.727,-0.965 0.023,-0.262 0.066,-0.523 0.078,-0.785 -0.086,0.066 -0.188,0.094 -0.27,0.172 -0.316,0.32 -0.648,0.828 -0.934,1.23 -0.285,0.398 -0.578,0.813 -0.852,1.098 -0.273,0.277 -0.566,0.305 -0.816,0.305 -0.25,0 -0.422,-0.02 -0.691,-0.305 -0.277,-0.281 -0.527,-0.695 -0.816,-1.098 -0.285,-0.398 -0.645,-0.906 -0.965,-1.23 -0.316,-0.313 -0.68,-0.438 -1.086,-0.438 -0.402,0 -0.773,0.113 -1.082,0.438 -0.316,0.32 -0.566,0.828 -0.855,1.23 -0.27,0.398 -0.52,0.813 -0.813,1.098 -0.273,0.277 -0.566,0.305 -0.816,0.305 -0.25,0 -0.539,-0.02 -0.813,-0.305 -0.277,-0.281 -0.566,-0.695 -0.855,-1.098 -0.285,-0.398 -0.496,-0.906 -0.813,-1.23 -0.316,-0.313 -0.688,-0.438 -1.086,-0.438 -0.402,0 -0.816,0.113 -1.121,0.438 -0.316,0.32 -0.527,0.828 -0.816,1.23 -0.285,0.398 -0.539,0.813 -0.813,1.098 -0.273,0.277 -0.566,0.305 -0.816,0.305 -0.25,0 -0.578,-0.02 -0.852,-0.305 -0.277,-0.281 -0.527,-0.695 -0.816,-1.098 -0.285,-0.398 -0.645,-0.906 -0.965,-1.23 -0.316,-0.313 -0.523,-0.438 -0.93,-0.438 -0.402,0 -0.816,0.113 -1.121,0.438 -0.316,0.32 -0.691,0.828 -0.977,1.23 -0.277,0.398 -0.539,0.813 -0.813,1.098 -0.273,0.277 -0.566,0.305 -0.816,0.305 -0.25,0 -0.422,-0.02 -0.695,-0.305 -0.273,-0.281 -0.523,-0.695 -0.813,-1.098 -0.285,-0.398 -0.652,-0.906 -0.965,-1.23 -0.316,-0.313 -0.688,-0.438 -1.086,-0.438 -0.402,0 -0.816,0.113 -1.121,0.438 -0.316,0.32 -0.531,0.828 -0.816,1.23 -0.285,0.398 -0.539,0.813 -0.813,1.098 -0.273,0.277 -0.566,0.305 -0.816,0.305 -0.25,0 -0.578,-0.02 -0.852,-0.305 -0.277,-0.281 -0.527,-0.695 -0.816,-1.098 -0.285,-0.398 -0.496,-0.906 -0.813,-1.23 -0.316,-0.313 -0.723,-0.438 -1.125,-0.438 -0.402,0 -0.773,0.113 -1.082,0.438 -0.316,0.32 -0.527,0.828 -0.816,1.23 -0.285,0.398 -0.691,0.813 -0.969,1.098 -0.273,0.277 -0.449,0.305 -0.695,0.305 -0.25,0 -0.539,-0.02 -0.813,-0.305 C 10.227,28.619 9.977,28.205 9.688,27.802 9.403,27.404 9.04,26.896 8.723,26.572 8.407,26.259 8.157,26.134 7.754,26.134 7.352,26.134 6.981,26.247 6.672,26.572 6.356,26.892 5.981,27.4 5.695,27.802 5.414,28.2 5.156,28.615 4.882,28.9 4.609,29.177 4.316,29.205 4.066,29.205 3.816,29.205 3.644,29.185 3.371,28.9 3.098,28.619 2.848,28.205 2.558,27.802 2.273,27.404 1.906,26.896 1.593,26.572 1.277,26.259 0.87,26.134 0.468,26.134 m 0.02,0"
             id="path47"
             inkscape:connector-curvature="0"
             style="fill:#000000;fill-opacity:1;fill-rule:nonzero;stroke:none" />
          <path
             d="m 0.844,30.16 c -0.16,0 -0.305,0.199 -0.406,0.313 -0.102,0.113 -0.199,0.121 -0.281,0.281 -0.043,0.086 -0.105,0.188 -0.156,0.281 l 0,1.219 c 0.012,-0.035 0.02,-0.059 0.031,-0.094 0.148,-0.398 0.266,-0.816 0.406,-1.094 0.07,-0.137 0.258,-0.25 0.313,-0.313 0.027,-0.031 0.078,0.008 0.094,0 0.055,0.059 0.211,0.172 0.281,0.313 0.141,0.277 0.293,0.695 0.438,1.094 0.148,0.398 0.215,0.742 0.375,1.063 0.082,0.16 0.211,0.355 0.316,0.469 0.102,0.113 0.211,0.188 0.375,0.188 0.16,0 0.332,-0.074 0.438,-0.188 0.105,-0.113 0.199,-0.309 0.281,-0.469 0.16,-0.32 0.227,-0.664 0.375,-1.063 0.145,-0.398 0.297,-0.816 0.437,-1.094 0.07,-0.137 0.227,-0.25 0.281,-0.313 0.012,0.008 0.094,-0.031 0.125,0 0.055,0.059 0.055,0.172 0.125,0.313 0.137,0.277 0.414,0.695 0.563,1.094 0.145,0.398 0.242,0.742 0.406,1.063 0.082,0.16 0.176,0.355 0.281,0.469 0.102,0.113 0.242,0.188 0.406,0.188 0.16,0 0.301,-0.074 0.406,-0.188 0.102,-0.113 0.23,-0.309 0.313,-0.469 0.16,-0.32 0.227,-0.664 0.375,-1.063 0.145,-0.398 0.297,-0.816 0.438,-1.094 0.07,-0.137 0.195,-0.25 0.25,-0.313 0.016,0.008 0.098,-0.031 0.125,0 0.055,0.059 0.086,0.172 0.156,0.313 0.141,0.277 0.383,0.695 0.531,1.094 0.145,0.398 0.273,0.742 0.438,1.063 0.082,0.16 0.176,0.355 0.281,0.469 0.102,0.113 0.211,0.188 0.375,0.188 0.16,0 0.332,-0.074 0.438,-0.188 0.102,-0.113 0.199,-0.309 0.281,-0.469 0.16,-0.32 0.258,-0.664 0.406,-1.063 0.145,-0.398 0.266,-0.816 0.406,-1.094 0.07,-0.137 0.07,-0.25 0.125,-0.313 0.055,-0.063 0.148,-0.156 0.156,-0.156 0.004,0 0.066,0.094 0.125,0.156 0.055,0.059 0.086,0.172 0.156,0.313 0.137,0.277 0.258,0.695 0.402,1.094 0.148,0.398 0.371,0.742 0.531,1.063 0.082,0.16 0.211,0.355 0.316,0.469 0.102,0.113 0.211,0.188 0.375,0.188 0.16,0 0.176,-0.074 0.277,-0.188 0.105,-0.113 0.203,-0.309 0.281,-0.469 0.164,-0.32 0.387,-0.664 0.531,-1.063 0.145,-0.398 0.297,-0.816 0.438,-1.094 0.07,-0.137 0.07,-0.25 0.125,-0.313 0.059,-0.063 0.121,-0.156 0.125,-0.156 0.008,0 0.102,0.094 0.156,0.156 0.055,0.059 0.055,0.172 0.125,0.313 0.141,0.277 0.262,0.695 0.406,1.094 0.145,0.398 0.395,0.742 0.563,1.063 0.082,0.16 0.18,0.355 0.281,0.469 0.102,0.113 0.09,0.188 0.25,0.188 0.164,0 0.336,-0.074 0.441,-0.188 0.102,-0.113 0.168,-0.309 0.25,-0.469 0.145,-0.32 0.395,-0.664 0.563,-1.063 0.145,-0.398 0.266,-0.816 0.406,-1.094 0.063,-0.137 0.063,-0.25 0.125,-0.313 0.02,-0.031 0.141,0.008 0.156,0 0.055,0.059 0.211,0.172 0.27,0.313 0.148,0.277 0.262,0.695 0.406,1.094 0.145,0.398 0.246,0.742 0.406,1.063 0.063,0.16 0.18,0.355 0.27,0.469 0.105,0.113 0.246,0.188 0.406,0.188 0.16,0 0.336,-0.074 0.438,-0.188 0.105,-0.113 0.168,-0.309 0.25,-0.469 0.16,-0.32 0.266,-0.664 0.402,-1.063 0.145,-0.398 0.395,-0.816 0.531,-1.094 0.063,-0.137 0.102,-0.25 0.145,-0.313 0.027,-0.031 0.148,0.008 0.156,0 0.055,0.059 0.211,0.172 0.281,0.313 0.141,0.277 0.227,0.695 0.375,1.094 0.145,0.398 0.27,0.742 0.438,1.063 0.082,0.16 0.148,0.355 0.25,0.469 0.105,0.113 0.277,0.188 0.441,0.188 0.16,0 0.309,-0.074 0.395,-0.188 0.105,-0.113 0.168,-0.309 0.25,-0.469 0.164,-0.32 0.293,-0.664 0.441,-1.063 0.145,-0.398 0.27,-0.816 0.395,-1.094 0.066,-0.137 0.23,-0.25 0.277,-0.313 0.027,-0.031 0.109,0.008 0.125,0 0.059,0.059 0.211,0.172 0.281,0.313 0.141,0.277 0.258,0.695 0.395,1.094 0.148,0.398 0.273,0.742 0.441,1.063 0.082,0.16 0.145,0.355 0.25,0.469 0.102,0.113 0.246,0.188 0.395,0.188 0.156,0 0.316,-0.074 0.402,-0.188 0.102,-0.113 0.199,-0.309 0.281,-0.469 0.164,-0.32 0.289,-0.664 0.438,-1.063 0.148,-0.398 0.23,-0.816 0.375,-1.094 0.066,-0.137 0.23,-0.25 0.277,-0.313 0.02,0.008 0.129,-0.031 0.145,0 0.066,0.059 0.066,0.172 0.125,0.313 0.148,0.277 0.414,0.695 0.566,1.094 0.145,0.398 0.238,0.742 0.395,1.063 0.082,0.16 0.148,0.355 0.25,0.469 0.105,0.113 0.277,0.188 0.441,0.188 0.16,0 0.309,-0.074 0.402,-0.188 0.102,-0.113 0.188,-0.309 0.27,-0.469 0.164,-0.32 0.262,-0.664 0.398,-1.063 0.145,-0.398 0.27,-0.816 0.395,-1.094 0.066,-0.137 0.23,-0.25 0.273,-0.313 0.02,0.008 0.137,-0.031 0.145,0 0.066,0.059 0.066,0.172 0.125,0.313 0.148,0.277 0.27,0.695 0.402,1.094 0.145,0.398 0.352,0.742 0.52,1.063 0.082,0.16 0.191,0.355 0.277,0.469 0.102,0.113 0.27,0.188 0.438,0.188 0.148,0 0.273,-0.074 0.375,-0.188 0.105,-0.113 0.191,-0.309 0.273,-0.469 0.145,-0.32 0.27,-0.664 0.395,-1.063 0.148,-0.398 0.309,-0.816 0.441,-1.094 0.066,-0.137 0.066,-0.25 0.125,-0.313 0.059,-0.063 0.148,-0.156 0.148,-0.156 0.016,0 0.063,0.094 0.125,0.156 0.063,0.059 0.063,0.172 0.125,0.313 0.145,0.277 0.27,0.695 0.395,1.094 0.148,0.398 0.398,0.742 0.566,1.063 0.082,0.16 0.18,0.355 0.27,0.469 0.105,0.113 0.234,0.188 0.398,0.188 0.145,0 0.145,-0.074 0.25,-0.188 0.102,-0.113 0.188,-0.309 0.27,-0.469 0.148,-0.32 0.41,-0.664 0.566,-1.063 0.145,-0.398 0.27,-0.816 0.395,-1.094 0.066,-0.137 0.105,-0.25 0.156,-0.313 0.059,-0.063 0.102,-0.156 0.125,-0.156 0.004,0 0.063,0.094 0.125,0.156 0.059,0.059 0.059,0.172 0.125,0.313 0.137,0.277 0.281,0.695 0.438,1.094 0.148,0.398 0.363,0.742 0.523,1.063 0.082,0.16 0.059,0.355 0.152,0.469 0.102,0.113 0.227,0.188 0.395,0.188 0.164,0 0.316,-0.074 0.398,-0.188 0.102,-0.113 0.188,-0.309 0.27,-0.469 0.164,-0.32 0.398,-0.664 0.531,-1.063 0.145,-0.398 0.297,-0.816 0.438,-1.094 0.066,-0.137 0.066,-0.25 0.125,-0.313 0.027,-0.031 0.148,0.008 0.152,0 0.063,0.059 0.188,0.172 0.25,0.313 0.148,0.277 0.293,0.695 0.441,1.094 0.145,0.398 0.223,0.742 0.375,1.063 0.082,0.16 0.188,0.355 0.27,0.469 0.105,0.113 0.273,0.188 0.441,0.188 0.16,0 0.305,-0.074 0.395,-0.188 0.105,-0.113 0.199,-0.309 0.273,-0.469 0.164,-0.32 0.227,-0.664 0.375,-1.063 0.02,-0.063 0.063,-0.125 0.102,-0.188 l 0,-1.094 c -0.148,0.293 -0.34,0.613 -0.477,0.969 -0.148,0.398 -0.297,0.785 -0.441,1.063 -0.063,0.137 -0.063,0.25 -0.125,0.313 -0.02,0.031 -0.102,-0.008 -0.125,0 -0.063,-0.063 -0.219,-0.172 -0.27,-0.313 -0.148,-0.277 -0.281,-0.664 -0.441,-1.063 -0.145,-0.398 -0.211,-0.773 -0.375,-1.094 -0.078,-0.16 -0.188,-0.168 -0.27,-0.281 -0.105,-0.113 -0.238,-0.313 -0.402,-0.313 -0.156,0 -0.332,0.199 -0.441,0.313 -0.102,0.113 -0.191,0.121 -0.273,0.281 -0.156,0.32 -0.23,0.695 -0.375,1.094 -0.148,0.398 -0.422,0.785 -0.566,1.063 -0.063,0.137 -0.102,0.25 -0.145,0.313 -0.023,0.031 -0.105,-0.008 -0.125,0 -0.066,-0.063 -0.211,-0.172 -0.277,-0.313 -0.145,-0.277 -0.258,-0.664 -0.395,-1.063 -0.148,-0.398 -0.23,-0.773 -0.398,-1.094 -0.082,-0.16 -0.188,-0.168 -0.27,-0.281 -0.105,-0.113 -0.23,-0.313 -0.398,-0.313 -0.164,0 -0.316,0.199 -0.402,0.313 -0.102,0.113 -0.188,0.121 -0.27,0.281 -0.164,0.32 -0.273,0.695 -0.406,1.094 -0.145,0.398 -0.297,0.785 -0.438,1.063 -0.066,0.137 -0.191,0.25 -0.25,0.313 -0.023,-0.008 -0.105,0.031 -0.125,0 -0.066,-0.063 -0.23,-0.172 -0.273,-0.313 -0.145,-0.277 -0.27,-0.664 -0.395,-1.063 -0.148,-0.398 -0.273,-0.773 -0.441,-1.094 -0.082,-0.16 -0.191,-0.168 -0.27,-0.281 -0.105,-0.113 -0.23,-0.313 -0.375,-0.313 -0.16,0 -0.355,0.199 -0.441,0.313 -0.105,0.113 -0.195,0.121 -0.273,0.281 -0.16,0.32 -0.27,0.695 -0.395,1.094 -0.148,0.398 -0.273,0.785 -0.398,1.063 -0.063,0.137 -0.188,0.25 -0.25,0.313 -0.02,-0.008 -0.133,0.031 -0.145,0 -0.066,-0.063 -0.066,-0.172 -0.125,-0.313 -0.148,-0.277 -0.426,-0.664 -0.566,-1.063 -0.145,-0.398 -0.238,-0.773 -0.395,-1.094 -0.082,-0.16 -0.191,-0.168 -0.273,-0.281 -0.102,-0.113 -0.246,-0.313 -0.402,-0.313 -0.156,0 -0.336,0.199 -0.441,0.313 -0.102,0.113 -0.18,0.121 -0.25,0.281 -0.16,0.32 -0.27,0.695 -0.395,1.094 -0.148,0.398 -0.309,0.785 -0.441,1.063 -0.066,0.137 -0.191,0.25 -0.25,0.313 -0.023,-0.008 -0.137,0.031 -0.148,0 -0.063,-0.063 -0.063,-0.172 -0.125,-0.313 -0.145,-0.277 -0.27,-0.664 -0.395,-1.063 -0.148,-0.398 -0.398,-0.773 -0.566,-1.094 -0.082,-0.16 -0.188,-0.168 -0.27,-0.281 -0.105,-0.113 -0.242,-0.313 -0.398,-0.313 -0.148,0 -0.313,0.199 -0.395,0.313 -0.105,0.113 -0.043,0.121 -0.125,0.281 -0.164,0.32 -0.418,0.695 -0.566,1.094 -0.145,0.398 -0.27,0.785 -0.395,1.063 -0.066,0.137 -0.066,0.25 -0.125,0.313 -0.066,0.063 -0.148,0.156 -0.152,0.156 -0.012,0 -0.07,-0.094 -0.125,-0.156 -0.063,-0.063 -0.086,-0.172 -0.156,-0.313 -0.145,-0.277 -0.227,-0.664 -0.375,-1.063 -0.145,-0.398 -0.43,-0.773 -0.594,-1.094 -0.082,-0.16 -0.145,-0.168 -0.25,-0.281 -0.102,-0.113 -0.121,-0.313 -0.281,-0.313 -0.152,0 -0.305,0.199 -0.398,0.313 -0.105,0.113 -0.168,0.121 -0.25,0.281 -0.16,0.32 -0.441,0.695 -0.602,1.094 -0.145,0.398 -0.227,0.785 -0.375,1.063 -0.063,0.137 -0.102,0.25 -0.148,0.313 -0.063,0.063 -0.113,0.156 -0.125,0.156 -0.016,0 -0.105,-0.094 -0.152,-0.156 -0.059,-0.063 -0.059,-0.172 -0.125,-0.313 -0.145,-0.277 -0.258,-0.664 -0.395,-1.063 -0.148,-0.398 -0.273,-0.773 -0.441,-1.094 -0.082,-0.16 -0.145,-0.168 -0.25,-0.281 -0.102,-0.113 -0.227,-0.313 -0.395,-0.313 -0.156,0 -0.344,0.199 -0.441,0.313 -0.102,0.113 -0.168,0.121 -0.25,0.281 -0.164,0.32 -0.418,0.695 -0.566,1.094 -0.145,0.398 -0.27,0.785 -0.395,1.063 -0.07,0.137 -0.105,0.25 -0.156,0.313 -0.02,0.031 -0.102,-0.008 -0.125,0 -0.055,-0.063 -0.211,-0.172 -0.27,-0.313 -0.148,-0.277 -0.273,-0.664 -0.402,-1.063 -0.145,-0.398 -0.227,-0.773 -0.395,-1.094 -0.082,-0.16 -0.148,-0.168 -0.25,-0.281 -0.105,-0.113 -0.273,-0.313 -0.441,-0.313 -0.145,0 -0.316,0.199 -0.395,0.313 -0.105,0.113 -0.191,0.121 -0.273,0.281 -0.164,0.32 -0.273,0.695 -0.406,1.094 -0.145,0.398 -0.422,0.785 -0.563,1.063 -0.066,0.137 -0.066,0.25 -0.125,0.313 -0.023,0.031 -0.148,-0.008 -0.148,0 -0.063,-0.063 -0.188,-0.172 -0.25,-0.313 -0.145,-0.277 -0.262,-0.664 -0.395,-1.063 -0.148,-0.398 -0.273,-0.773 -0.441,-1.094 -0.082,-0.16 -0.145,-0.168 -0.25,-0.281 -0.102,-0.113 -0.27,-0.313 -0.438,-0.313 -0.148,0 -0.273,0.199 -0.375,0.313 -0.105,0.113 -0.23,0.121 -0.316,0.281 -0.156,0.32 -0.262,0.695 -0.395,1.094 -0.148,0.398 -0.273,0.785 -0.398,1.063 -0.066,0.137 -0.227,0.25 -0.281,0.313 -0.016,-0.008 -0.098,0.031 -0.125,0 -0.055,-0.063 -0.18,-0.172 -0.25,-0.313 -0.141,-0.277 -0.285,-0.664 -0.438,-1.063 -0.148,-0.398 -0.234,-0.773 -0.398,-1.094 -0.082,-0.16 -0.188,-0.168 -0.281,-0.281 -0.102,-0.113 -0.227,-0.313 -0.395,-0.313 -0.148,0 -0.316,0.199 -0.398,0.313 -0.102,0.113 -0.188,0.121 -0.27,0.281 -0.164,0.32 -0.273,0.695 -0.398,1.094 -0.145,0.398 -0.27,0.785 -0.395,1.063 -0.066,0.137 -0.254,0.25 -0.316,0.313 -0.02,-0.008 -0.102,0.031 -0.125,0 C 9.931,33.16 9.931,33.051 9.869,32.91 9.724,32.633 9.455,32.246 9.306,31.847 9.158,31.449 9.079,31.074 8.931,30.753 8.849,30.593 8.74,30.585 8.654,30.472 8.552,30.359 8.384,30.159 8.216,30.159 8.068,30.159 7.9,30.358 7.818,30.472 7.716,30.585 7.63,30.593 7.548,30.753 7.4,31.073 7.318,31.448 7.173,31.847 7.025,32.245 6.86,32.632 6.732,32.91 6.666,33.047 6.505,33.16 6.462,33.223 6.439,33.215 6.357,33.254 6.337,33.223 6.271,33.16 6.271,33.051 6.212,32.91 6.064,32.633 5.927,32.246 5.771,31.847 5.623,31.449 5.404,31.074 5.24,30.753 5.158,30.593 5.056,30.585 4.97,30.472 4.865,30.359 4.74,30.159 4.572,30.159 c -0.145,0 -0.188,0.199 -0.27,0.313 -0.105,0.113 -0.191,0.121 -0.273,0.281 -0.145,0.32 -0.395,0.695 -0.52,1.094 C 3.361,32.245 3.212,32.632 3.068,32.91 3.005,33.047 3.005,33.16 2.943,33.223 2.88,33.286 2.798,33.379 2.798,33.379 2.782,33.379 2.771,33.285 2.693,33.223 2.63,33.16 2.607,33.051 2.548,32.91 2.4,32.633 2.259,32.246 2.107,31.847 1.962,31.449 1.744,31.074 1.58,30.753 1.517,30.593 1.4,30.585 1.31,30.472 1.205,30.359 1.205,30.159 1.037,30.159 m 0,0"
             id="path49"
             inkscape:connector-curvature="0"
             style="fill:#000000;fill-opacity:1;fill-rule:nonzero;stroke:none" />
        </g>
      </g>
    </g>
  </g>
  <g
     id="g51"
     transform="matrix(1.0434783,0,0,1,-1.0434783,1)">
    <g
       clip-path="url(#clipPath-800815602)"
       id="g53">
      <g
         transform="translate(0,-1)"
         id="g55">
        <!-- color: #3c4b5e -->
        <g
           id="g57">
          <path
             d="m 7.313,13.875 c -1.438,0 -2.648,0.891 -3.844,1.688 C 2.305,16.34 1.242,17.059 0,17.094 l 0,0.5 C 1.395,17.559 2.551,16.778 3.719,16 c 1.195,-0.797 2.309,-1.531 3.594,-1.531 1.285,0 2.492,0.734 3.688,1.531 1.195,0.797 2.406,1.594 3.844,1.594 1.438,0 2.684,-0.797 3.875,-1.594 1.195,-0.797 2.402,-1.531 3.688,-1.531 1.285,0 2.402,0.734 3.605,1.531 1.188,0.797 2.375,1.594 3.813,1.594 1.441,0 2.648,-0.797 3.855,-1.594 1.188,-0.797 2.434,-1.531 3.719,-1.531 1.285,0 2.367,0.734 3.566,1.531 1.191,0.797 2.402,1.594 3.844,1.594 1.137,0 2.223,-0.492 3.219,-1.094 l 0,-0.625 c -1.043,0.664 -2.102,1.219 -3.219,1.219 -1.285,0 -2.367,-0.734 -3.566,-1.531 -1.188,-0.797 -2.395,-1.688 -3.844,-1.688 -1.438,0 -2.688,0.891 -3.875,1.688 -1.195,0.797 -2.402,1.531 -3.688,1.531 -1.285,0 -2.371,-0.734 -3.566,-1.531 -1.195,-0.797 -2.41,-1.688 -3.855,-1.688 -1.434,0 -2.77,0.891 -3.969,1.688 -1.188,0.797 -2.305,1.531 -3.594,1.531 -1.285,0 -2.492,-0.734 -3.691,-1.531 C 9.974,14.766 8.767,13.875 7.318,13.875 m 0,0"
             id="path59"
             inkscape:connector-curvature="0"
             style="fill:#3dc535;fill-opacity:1;fill-rule:nonzero;stroke:none" />
          <path
             d="m 8,18.03 c -1.234,0 -2.309,0.766 -3.313,1.563 -1.012,0.797 -1.945,1.531 -3,1.531 -0.582,0 -1.141,-0.23 -1.688,-0.563 l 0,0.594 c 0.523,0.273 1.094,0.469 1.688,0.469 1.234,0 2.277,-0.797 3.281,-1.594 1.01,-0.801 1.973,-1.531 3.03,-1.531 1.062,0 1.996,0.734 3,1.531 1.023,0.797 2.078,1.594 3.316,1.594 1.234,0 2.273,-0.797 3.281,-1.594 1.012,-0.801 1.973,-1.531 3.03,-1.531 1.059,0 1.996,0.734 3,1.531 1.012,0.797 2.078,1.594 3.313,1.594 1.238,0 2.277,-0.797 3.281,-1.594 1.012,-0.801 1.977,-1.531 3.03,-1.531 1.055,0 1.996,0.734 3,1.531 1.012,0.797 2.074,1.594 3.313,1.594 1.238,0 2.277,-0.797 3.281,-1.594 1.012,-0.801 1.977,-1.531 3.03,-1.531 0.746,0 1.441,0.379 2.125,0.875 l 0,-0.594 c -0.668,-0.426 -1.348,-0.75 -2.125,-0.75 -1.227,0 -2.309,0.766 -3.313,1.563 -1.012,0.797 -1.945,1.531 -3,1.531 -1.059,0 -2.027,-0.734 -3.03,-1.531 -1.012,-0.797 -2.047,-1.563 -3.281,-1.563 -1.234,0 -2.309,0.766 -3.313,1.563 -1.012,0.797 -1.945,1.531 -3,1.531 -1.055,0 -2.027,-0.734 -3.03,-1.531 -1.012,-0.797 -2.043,-1.563 -3.281,-1.563 -1.234,0 -2.305,0.766 -3.313,1.563 -1.012,0.797 -1.945,1.531 -3,1.531 -1.055,0 -2.027,-0.734 -3.03,-1.531 C 10.272,18.796 9.239,18.03 8.001,18.03 m 0.004,0"
             id="path61"
             inkscape:connector-curvature="0"
             style="fill:#36abf2;fill-opacity:1;fill-rule:nonzero;stroke:none" />
          <path
             d="m 1.406,22.06 c -0.523,0 -0.973,0.195 -1.406,0.5 l 0,0.656 c 0.465,-0.391 0.926,-0.688 1.406,-0.688 0.789,0 1.52,0.734 2.313,1.531 0.762,0.766 1.664,1.531 2.625,1.594 0.039,0.004 0.086,0 0.125,0 0.965,-0.063 1.863,-0.828 2.625,-1.594 0.793,-0.797 1.555,-1.531 2.344,-1.531 0.789,0 1.52,0.734 2.313,1.531 0.793,0.797 1.578,1.594 2.594,1.594 1.02,0 1.832,-0.797 2.625,-1.594 0.793,-0.797 1.555,-1.531 2.344,-1.531 0.789,0 1.523,0.734 2.316,1.531 0.793,0.797 1.73,1.594 2.75,1.594 1.016,0 1.801,-0.797 2.594,-1.594 0.793,-0.797 1.586,-1.531 2.375,-1.531 0.789,0 1.52,0.734 2.313,1.531 0.793,0.797 1.574,1.594 2.605,1.594 1.016,0 1.832,-0.797 2.625,-1.594 0.793,-0.797 1.555,-1.531 2.344,-1.531 0.789,0 1.523,0.734 2.316,1.531 0.793,0.797 1.727,1.594 2.75,1.594 0.645,0 1.191,-0.344 1.719,-0.781 l 0,-0.625 c -0.566,0.527 -1.137,0.906 -1.719,0.906 -0.789,0 -1.68,-0.734 -2.473,-1.531 -0.793,-0.797 -1.574,-1.563 -2.594,-1.563 -1.02,0 -1.832,0.766 -2.625,1.563 -0.793,0.801 -1.555,1.531 -2.344,1.531 -0.789,0 -1.523,-0.734 -2.316,-1.531 -0.793,-0.797 -1.578,-1.563 -2.594,-1.563 -1.02,0 -1.832,0.766 -2.625,1.563 -0.793,0.801 -1.566,1.531 -2.344,1.531 -0.789,0 -1.688,-0.734 -2.48,-1.531 -0.793,-0.797 -1.563,-1.563 -2.594,-1.563 -1.016,0 -1.801,0.766 -2.594,1.563 -0.793,0.801 -1.586,1.531 -2.375,1.531 -0.789,0 -1.52,-0.734 -2.313,-1.531 -0.793,-0.797 -1.574,-1.563 -2.594,-1.563 -1.016,0 -1.801,0.766 -2.594,1.563 -0.758,0.766 -1.621,1.473 -2.375,1.531 -0.035,0 -0.09,0.004 -0.125,0 C 5.589,25.094 4.788,24.387 4.03,23.622 3.237,22.825 2.425,22.059 1.405,22.059 m 0,0"
             id="path63"
             inkscape:connector-curvature="0"
             style="fill:#fff333;fill-opacity:1;fill-rule:nonzero;stroke:none" />
          <path
             d="m 0.434,26.13 c -0.406,0 -0.77,0.117 -1.086,0.438 -0.316,0.32 -0.527,0.828 -0.816,1.23 -0.09,0.129 -0.184,0.27 -0.27,0.395 0.023,0.191 0.086,0.379 0.117,0.57 0.141,-0.195 0.266,-0.398 0.422,-0.613 0.289,-0.395 0.691,-0.813 0.969,-1.094 0.277,-0.281 0.41,-0.484 0.66,-0.484 0.246,0 0.578,0.203 0.848,0.484 0.277,0.273 0.531,0.691 0.816,1.094 0.289,0.402 0.652,0.73 0.969,1.051 0.313,0.316 0.563,0.652 0.965,0.652 0.406,0 0.77,-0.336 1.086,-0.652 0.316,-0.313 0.684,-0.645 0.969,-1.051 0.285,-0.395 0.535,-0.813 0.813,-1.094 0.277,-0.281 0.566,-0.484 0.816,-0.484 0.246,0 0.422,0.203 0.699,0.484 0.273,0.273 0.527,0.691 0.813,1.094 0.289,0.402 0.652,0.73 0.969,1.051 0.316,0.316 0.68,0.652 1.082,0.652 0.406,0 0.816,-0.336 1.125,-0.652 0.316,-0.313 0.527,-0.645 0.816,-1.051 0.285,-0.395 0.535,-0.813 0.813,-1.094 0.277,-0.281 0.566,-0.484 0.816,-0.484 0.246,0 0.578,0.203 0.848,0.484 0.277,0.273 0.531,0.691 0.816,1.094 0.289,0.402 0.496,0.73 0.816,1.051 0.313,0.316 0.719,0.652 1.121,0.652 0.406,0 0.77,-0.336 1.086,-0.652 0.316,-0.313 0.527,-0.645 0.813,-1.051 0.289,-0.395 0.691,-0.813 0.969,-1.094 0.277,-0.281 0.449,-0.484 0.699,-0.484 0.246,0 0.539,0.203 0.813,0.484 0.277,0.273 0.531,0.691 0.816,1.094 0.289,0.402 0.652,0.73 0.969,1.051 0.316,0.316 0.566,0.652 0.965,0.652 0.406,0 0.773,-0.336 1.086,-0.652 0.316,-0.313 0.691,-0.645 0.98,-1.051 0.273,-0.395 0.523,-0.813 0.813,-1.094 0.277,-0.281 0.605,-0.484 0.855,-0.484 0.246,0 0.383,0.203 0.66,0.484 0.27,0.273 0.563,0.691 0.848,1.094 0.289,0.402 0.613,0.73 0.93,1.051 0.316,0.316 0.73,0.652 1.125,0.652 0.402,0 0.773,-0.336 1.082,-0.652 0.316,-0.313 0.527,-0.645 0.816,-1.051 0.285,-0.395 0.578,-0.813 0.848,-1.094 0.277,-0.281 0.57,-0.484 0.816,-0.484 0.25,0 0.539,0.203 0.813,0.484 0.273,0.273 0.527,0.691 0.816,1.094 0.289,0.402 0.535,0.73 0.852,1.051 0.316,0.316 0.691,0.652 1.105,0.652 0.395,0 0.766,-0.336 1.082,-0.652 0.313,-0.313 0.563,-0.645 0.852,-1.051 0.285,-0.395 0.652,-0.813 0.941,-1.094 0.27,-0.281 0.453,-0.484 0.691,-0.484 0.25,0 0.535,0.203 0.813,0.484 0.273,0.273 0.566,0.691 0.855,1.094 0.281,0.402 0.605,0.73 0.938,1.051 0.316,0.316 0.566,0.652 0.969,0.652 0.402,0 0.816,-0.336 1.121,-0.652 0.316,-0.313 0.648,-0.645 0.941,-1.051 0.25,-0.344 0.5,-0.695 0.727,-0.965 0.023,-0.262 0.066,-0.523 0.078,-0.785 -0.086,0.066 -0.188,0.094 -0.27,0.172 -0.316,0.32 -0.648,0.828 -0.934,1.23 -0.285,0.398 -0.578,0.813 -0.852,1.098 -0.273,0.277 -0.566,0.305 -0.816,0.305 -0.25,0 -0.422,-0.02 -0.691,-0.305 -0.277,-0.281 -0.527,-0.695 -0.816,-1.098 -0.285,-0.398 -0.645,-0.906 -0.965,-1.23 -0.316,-0.313 -0.68,-0.438 -1.086,-0.438 -0.402,0 -0.773,0.113 -1.082,0.438 -0.316,0.32 -0.566,0.828 -0.855,1.23 -0.27,0.398 -0.52,0.813 -0.813,1.098 -0.273,0.277 -0.566,0.305 -0.816,0.305 -0.25,0 -0.539,-0.02 -0.813,-0.305 -0.277,-0.281 -0.566,-0.695 -0.855,-1.098 -0.285,-0.398 -0.496,-0.906 -0.813,-1.23 -0.316,-0.313 -0.688,-0.438 -1.086,-0.438 -0.402,0 -0.816,0.113 -1.121,0.438 -0.316,0.32 -0.527,0.828 -0.816,1.23 -0.285,0.398 -0.539,0.813 -0.813,1.098 -0.273,0.277 -0.566,0.305 -0.816,0.305 -0.25,0 -0.578,-0.02 -0.852,-0.305 -0.277,-0.281 -0.527,-0.695 -0.816,-1.098 -0.285,-0.398 -0.645,-0.906 -0.965,-1.23 -0.316,-0.313 -0.523,-0.438 -0.93,-0.438 -0.402,0 -0.816,0.113 -1.121,0.438 -0.316,0.32 -0.691,0.828 -0.977,1.23 -0.277,0.398 -0.539,0.813 -0.813,1.098 -0.273,0.277 -0.566,0.305 -0.816,0.305 -0.25,0 -0.422,-0.02 -0.695,-0.305 -0.273,-0.281 -0.523,-0.695 -0.813,-1.098 -0.285,-0.398 -0.652,-0.906 -0.965,-1.23 -0.316,-0.313 -0.688,-0.438 -1.086,-0.438 -0.402,0 -0.816,0.113 -1.121,0.438 -0.316,0.32 -0.531,0.828 -0.816,1.23 -0.285,0.398 -0.539,0.813 -0.813,1.098 -0.273,0.277 -0.566,0.305 -0.816,0.305 -0.25,0 -0.578,-0.02 -0.852,-0.305 -0.277,-0.281 -0.527,-0.695 -0.816,-1.098 -0.285,-0.398 -0.496,-0.906 -0.813,-1.23 -0.316,-0.313 -0.723,-0.438 -1.125,-0.438 -0.402,0 -0.773,0.113 -1.082,0.438 -0.316,0.32 -0.527,0.828 -0.816,1.23 -0.285,0.398 -0.691,0.813 -0.969,1.098 -0.273,0.277 -0.449,0.305 -0.695,0.305 -0.25,0 -0.539,-0.02 -0.813,-0.305 C 10.227,28.619 9.977,28.205 9.688,27.802 9.403,27.404 9.04,26.896 8.723,26.572 8.407,26.259 8.157,26.134 7.754,26.134 7.352,26.134 6.981,26.247 6.672,26.572 6.356,26.892 5.981,27.4 5.695,27.802 5.414,28.2 5.156,28.615 4.882,28.9 4.609,29.177 4.316,29.205 4.066,29.205 3.816,29.205 3.644,29.185 3.371,28.9 3.098,28.619 2.848,28.205 2.558,27.802 2.273,27.404 1.906,26.896 1.593,26.572 1.277,26.259 0.87,26.134 0.468,26.134 m 0.02,0"
             id="path65"
             inkscape:connector-curvature="0"
             style="fill:#36abf2;fill-opacity:1;fill-rule:nonzero;stroke:none" />
          <path
             d="m 0.844,30.16 c -0.16,0 -0.305,0.199 -0.406,0.313 -0.102,0.113 -0.199,0.121 -0.281,0.281 -0.043,0.086 -0.105,0.188 -0.156,0.281 l 0,1.219 c 0.012,-0.035 0.02,-0.059 0.031,-0.094 0.148,-0.398 0.266,-0.816 0.406,-1.094 0.07,-0.137 0.258,-0.25 0.313,-0.313 0.027,-0.031 0.078,0.008 0.094,0 0.055,0.059 0.211,0.172 0.281,0.313 0.141,0.277 0.293,0.695 0.438,1.094 0.148,0.398 0.215,0.742 0.375,1.063 0.082,0.16 0.211,0.355 0.316,0.469 0.102,0.113 0.211,0.188 0.375,0.188 0.16,0 0.332,-0.074 0.438,-0.188 0.105,-0.113 0.199,-0.309 0.281,-0.469 0.16,-0.32 0.227,-0.664 0.375,-1.063 0.145,-0.398 0.297,-0.816 0.437,-1.094 0.07,-0.137 0.227,-0.25 0.281,-0.313 0.012,0.008 0.094,-0.031 0.125,0 0.055,0.059 0.055,0.172 0.125,0.313 0.137,0.277 0.414,0.695 0.563,1.094 0.145,0.398 0.242,0.742 0.406,1.063 0.082,0.16 0.176,0.355 0.281,0.469 0.102,0.113 0.242,0.188 0.406,0.188 0.16,0 0.301,-0.074 0.406,-0.188 0.102,-0.113 0.23,-0.309 0.313,-0.469 0.16,-0.32 0.227,-0.664 0.375,-1.063 0.145,-0.398 0.297,-0.816 0.438,-1.094 0.07,-0.137 0.195,-0.25 0.25,-0.313 0.016,0.008 0.098,-0.031 0.125,0 0.055,0.059 0.086,0.172 0.156,0.313 0.141,0.277 0.383,0.695 0.531,1.094 0.145,0.398 0.273,0.742 0.438,1.063 0.082,0.16 0.176,0.355 0.281,0.469 0.102,0.113 0.211,0.188 0.375,0.188 0.16,0 0.332,-0.074 0.438,-0.188 0.102,-0.113 0.199,-0.309 0.281,-0.469 0.16,-0.32 0.258,-0.664 0.406,-1.063 0.145,-0.398 0.266,-0.816 0.406,-1.094 0.07,-0.137 0.07,-0.25 0.125,-0.313 0.055,-0.063 0.148,-0.156 0.156,-0.156 0.004,0 0.066,0.094 0.125,0.156 0.055,0.059 0.086,0.172 0.156,0.313 0.137,0.277 0.258,0.695 0.402,1.094 0.148,0.398 0.371,0.742 0.531,1.063 0.082,0.16 0.211,0.355 0.316,0.469 0.102,0.113 0.211,0.188 0.375,0.188 0.16,0 0.176,-0.074 0.277,-0.188 0.105,-0.113 0.203,-0.309 0.281,-0.469 0.164,-0.32 0.387,-0.664 0.531,-1.063 0.145,-0.398 0.297,-0.816 0.438,-1.094 0.07,-0.137 0.07,-0.25 0.125,-0.313 0.059,-0.063 0.121,-0.156 0.125,-0.156 0.008,0 0.102,0.094 0.156,0.156 0.055,0.059 0.055,0.172 0.125,0.313 0.141,0.277 0.262,0.695 0.406,1.094 0.145,0.398 0.395,0.742 0.563,1.063 0.082,0.16 0.18,0.355 0.281,0.469 0.102,0.113 0.09,0.188 0.25,0.188 0.164,0 0.336,-0.074 0.441,-0.188 0.102,-0.113 0.168,-0.309 0.25,-0.469 0.145,-0.32 0.395,-0.664 0.563,-1.063 0.145,-0.398 0.266,-0.816 0.406,-1.094 0.063,-0.137 0.063,-0.25 0.125,-0.313 0.02,-0.031 0.141,0.008 0.156,0 0.055,0.059 0.211,0.172 0.27,0.313 0.148,0.277 0.262,0.695 0.406,1.094 0.145,0.398 0.246,0.742 0.406,1.063 0.063,0.16 0.18,0.355 0.27,0.469 0.105,0.113 0.246,0.188 0.406,0.188 0.16,0 0.336,-0.074 0.438,-0.188 0.105,-0.113 0.168,-0.309 0.25,-0.469 0.16,-0.32 0.266,-0.664 0.402,-1.063 0.145,-0.398 0.395,-0.816 0.531,-1.094 0.063,-0.137 0.102,-0.25 0.145,-0.313 0.027,-0.031 0.148,0.008 0.156,0 0.055,0.059 0.211,0.172 0.281,0.313 0.141,0.277 0.227,0.695 0.375,1.094 0.145,0.398 0.27,0.742 0.438,1.063 0.082,0.16 0.148,0.355 0.25,0.469 0.105,0.113 0.277,0.188 0.441,0.188 0.16,0 0.309,-0.074 0.395,-0.188 0.105,-0.113 0.168,-0.309 0.25,-0.469 0.164,-0.32 0.293,-0.664 0.441,-1.063 0.145,-0.398 0.27,-0.816 0.395,-1.094 0.066,-0.137 0.23,-0.25 0.277,-0.313 0.027,-0.031 0.109,0.008 0.125,0 0.059,0.059 0.211,0.172 0.281,0.313 0.141,0.277 0.258,0.695 0.395,1.094 0.148,0.398 0.273,0.742 0.441,1.063 0.082,0.16 0.145,0.355 0.25,0.469 0.102,0.113 0.246,0.188 0.395,0.188 0.156,0 0.316,-0.074 0.402,-0.188 0.102,-0.113 0.199,-0.309 0.281,-0.469 0.164,-0.32 0.289,-0.664 0.438,-1.063 0.148,-0.398 0.23,-0.816 0.375,-1.094 0.066,-0.137 0.23,-0.25 0.277,-0.313 0.02,0.008 0.129,-0.031 0.145,0 0.066,0.059 0.066,0.172 0.125,0.313 0.148,0.277 0.414,0.695 0.566,1.094 0.145,0.398 0.238,0.742 0.395,1.063 0.082,0.16 0.148,0.355 0.25,0.469 0.105,0.113 0.277,0.188 0.441,0.188 0.16,0 0.309,-0.074 0.402,-0.188 0.102,-0.113 0.188,-0.309 0.27,-0.469 0.164,-0.32 0.262,-0.664 0.398,-1.063 0.145,-0.398 0.27,-0.816 0.395,-1.094 0.066,-0.137 0.23,-0.25 0.273,-0.313 0.02,0.008 0.137,-0.031 0.145,0 0.066,0.059 0.066,0.172 0.125,0.313 0.148,0.277 0.27,0.695 0.402,1.094 0.145,0.398 0.352,0.742 0.52,1.063 0.082,0.16 0.191,0.355 0.277,0.469 0.102,0.113 0.27,0.188 0.438,0.188 0.148,0 0.273,-0.074 0.375,-0.188 0.105,-0.113 0.191,-0.309 0.273,-0.469 0.145,-0.32 0.27,-0.664 0.395,-1.063 0.148,-0.398 0.309,-0.816 0.441,-1.094 0.066,-0.137 0.066,-0.25 0.125,-0.313 0.059,-0.063 0.148,-0.156 0.148,-0.156 0.016,0 0.063,0.094 0.125,0.156 0.063,0.059 0.063,0.172 0.125,0.313 0.145,0.277 0.27,0.695 0.395,1.094 0.148,0.398 0.398,0.742 0.566,1.063 0.082,0.16 0.18,0.355 0.27,0.469 0.105,0.113 0.234,0.188 0.398,0.188 0.145,0 0.145,-0.074 0.25,-0.188 0.102,-0.113 0.188,-0.309 0.27,-0.469 0.148,-0.32 0.41,-0.664 0.566,-1.063 0.145,-0.398 0.27,-0.816 0.395,-1.094 0.066,-0.137 0.105,-0.25 0.156,-0.313 0.059,-0.063 0.102,-0.156 0.125,-0.156 0.004,0 0.063,0.094 0.125,0.156 0.059,0.059 0.059,0.172 0.125,0.313 0.137,0.277 0.281,0.695 0.438,1.094 0.148,0.398 0.363,0.742 0.523,1.063 0.082,0.16 0.059,0.355 0.152,0.469 0.102,0.113 0.227,0.188 0.395,0.188 0.164,0 0.316,-0.074 0.398,-0.188 0.102,-0.113 0.188,-0.309 0.27,-0.469 0.164,-0.32 0.398,-0.664 0.531,-1.063 0.145,-0.398 0.297,-0.816 0.438,-1.094 0.066,-0.137 0.066,-0.25 0.125,-0.313 0.027,-0.031 0.148,0.008 0.152,0 0.063,0.059 0.188,0.172 0.25,0.313 0.148,0.277 0.293,0.695 0.441,1.094 0.145,0.398 0.223,0.742 0.375,1.063 0.082,0.16 0.188,0.355 0.27,0.469 0.105,0.113 0.273,0.188 0.441,0.188 0.16,0 0.305,-0.074 0.395,-0.188 0.105,-0.113 0.199,-0.309 0.273,-0.469 0.164,-0.32 0.227,-0.664 0.375,-1.063 0.02,-0.063 0.063,-0.125 0.102,-0.188 l 0,-1.094 c -0.148,0.293 -0.34,0.613 -0.477,0.969 -0.148,0.398 -0.297,0.785 -0.441,1.063 -0.063,0.137 -0.063,0.25 -0.125,0.313 -0.02,0.031 -0.102,-0.008 -0.125,0 -0.063,-0.063 -0.219,-0.172 -0.27,-0.313 -0.148,-0.277 -0.281,-0.664 -0.441,-1.063 -0.145,-0.398 -0.211,-0.773 -0.375,-1.094 -0.078,-0.16 -0.188,-0.168 -0.27,-0.281 -0.105,-0.113 -0.238,-0.313 -0.402,-0.313 -0.156,0 -0.332,0.199 -0.441,0.313 -0.102,0.113 -0.191,0.121 -0.273,0.281 -0.156,0.32 -0.23,0.695 -0.375,1.094 -0.148,0.398 -0.422,0.785 -0.566,1.063 -0.063,0.137 -0.102,0.25 -0.145,0.313 -0.023,0.031 -0.105,-0.008 -0.125,0 -0.066,-0.063 -0.211,-0.172 -0.277,-0.313 -0.145,-0.277 -0.258,-0.664 -0.395,-1.063 -0.148,-0.398 -0.23,-0.773 -0.398,-1.094 -0.082,-0.16 -0.188,-0.168 -0.27,-0.281 -0.105,-0.113 -0.23,-0.313 -0.398,-0.313 -0.164,0 -0.316,0.199 -0.402,0.313 -0.102,0.113 -0.188,0.121 -0.27,0.281 -0.164,0.32 -0.273,0.695 -0.406,1.094 -0.145,0.398 -0.297,0.785 -0.438,1.063 -0.066,0.137 -0.191,0.25 -0.25,0.313 -0.023,-0.008 -0.105,0.031 -0.125,0 -0.066,-0.063 -0.23,-0.172 -0.273,-0.313 -0.145,-0.277 -0.27,-0.664 -0.395,-1.063 -0.148,-0.398 -0.273,-0.773 -0.441,-1.094 -0.082,-0.16 -0.191,-0.168 -0.27,-0.281 -0.105,-0.113 -0.23,-0.313 -0.375,-0.313 -0.16,0 -0.355,0.199 -0.441,0.313 -0.105,0.113 -0.195,0.121 -0.273,0.281 -0.16,0.32 -0.27,0.695 -0.395,1.094 -0.148,0.398 -0.273,0.785 -0.398,1.063 -0.063,0.137 -0.188,0.25 -0.25,0.313 -0.02,-0.008 -0.133,0.031 -0.145,0 -0.066,-0.063 -0.066,-0.172 -0.125,-0.313 -0.148,-0.277 -0.426,-0.664 -0.566,-1.063 -0.145,-0.398 -0.238,-0.773 -0.395,-1.094 -0.082,-0.16 -0.191,-0.168 -0.273,-0.281 -0.102,-0.113 -0.246,-0.313 -0.402,-0.313 -0.156,0 -0.336,0.199 -0.441,0.313 -0.102,0.113 -0.18,0.121 -0.25,0.281 -0.16,0.32 -0.27,0.695 -0.395,1.094 -0.148,0.398 -0.309,0.785 -0.441,1.063 -0.066,0.137 -0.191,0.25 -0.25,0.313 -0.023,-0.008 -0.137,0.031 -0.148,0 -0.063,-0.063 -0.063,-0.172 -0.125,-0.313 -0.145,-0.277 -0.27,-0.664 -0.395,-1.063 -0.148,-0.398 -0.398,-0.773 -0.566,-1.094 -0.082,-0.16 -0.188,-0.168 -0.27,-0.281 -0.105,-0.113 -0.242,-0.313 -0.398,-0.313 -0.148,0 -0.313,0.199 -0.395,0.313 -0.105,0.113 -0.043,0.121 -0.125,0.281 -0.164,0.32 -0.418,0.695 -0.566,1.094 -0.145,0.398 -0.27,0.785 -0.395,1.063 -0.066,0.137 -0.066,0.25 -0.125,0.313 -0.066,0.063 -0.148,0.156 -0.152,0.156 -0.012,0 -0.07,-0.094 -0.125,-0.156 -0.063,-0.063 -0.086,-0.172 -0.156,-0.313 -0.145,-0.277 -0.227,-0.664 -0.375,-1.063 -0.145,-0.398 -0.43,-0.773 -0.594,-1.094 -0.082,-0.16 -0.145,-0.168 -0.25,-0.281 -0.102,-0.113 -0.121,-0.313 -0.281,-0.313 -0.152,0 -0.305,0.199 -0.398,0.313 -0.105,0.113 -0.168,0.121 -0.25,0.281 -0.16,0.32 -0.441,0.695 -0.602,1.094 -0.145,0.398 -0.227,0.785 -0.375,1.063 -0.063,0.137 -0.102,0.25 -0.148,0.313 -0.063,0.063 -0.113,0.156 -0.125,0.156 -0.016,0 -0.105,-0.094 -0.152,-0.156 -0.059,-0.063 -0.059,-0.172 -0.125,-0.313 -0.145,-0.277 -0.258,-0.664 -0.395,-1.063 -0.148,-0.398 -0.273,-0.773 -0.441,-1.094 -0.082,-0.16 -0.145,-0.168 -0.25,-0.281 -0.102,-0.113 -0.227,-0.313 -0.395,-0.313 -0.156,0 -0.344,0.199 -0.441,0.313 -0.102,0.113 -0.168,0.121 -0.25,0.281 -0.164,0.32 -0.418,0.695 -0.566,1.094 -0.145,0.398 -0.27,0.785 -0.395,1.063 -0.07,0.137 -0.105,0.25 -0.156,0.313 -0.02,0.031 -0.102,-0.008 -0.125,0 -0.055,-0.063 -0.211,-0.172 -0.27,-0.313 -0.148,-0.277 -0.273,-0.664 -0.402,-1.063 -0.145,-0.398 -0.227,-0.773 -0.395,-1.094 -0.082,-0.16 -0.148,-0.168 -0.25,-0.281 -0.105,-0.113 -0.273,-0.313 -0.441,-0.313 -0.145,0 -0.316,0.199 -0.395,0.313 -0.105,0.113 -0.191,0.121 -0.273,0.281 -0.164,0.32 -0.273,0.695 -0.406,1.094 -0.145,0.398 -0.422,0.785 -0.563,1.063 -0.066,0.137 -0.066,0.25 -0.125,0.313 -0.023,0.031 -0.148,-0.008 -0.148,0 -0.063,-0.063 -0.188,-0.172 -0.25,-0.313 -0.145,-0.277 -0.262,-0.664 -0.395,-1.063 -0.148,-0.398 -0.273,-0.773 -0.441,-1.094 -0.082,-0.16 -0.145,-0.168 -0.25,-0.281 -0.102,-0.113 -0.27,-0.313 -0.438,-0.313 -0.148,0 -0.273,0.199 -0.375,0.313 -0.105,0.113 -0.23,0.121 -0.316,0.281 -0.156,0.32 -0.262,0.695 -0.395,1.094 -0.148,0.398 -0.273,0.785 -0.398,1.063 -0.066,0.137 -0.227,0.25 -0.281,0.313 -0.016,-0.008 -0.098,0.031 -0.125,0 -0.055,-0.063 -0.18,-0.172 -0.25,-0.313 -0.141,-0.277 -0.285,-0.664 -0.438,-1.063 -0.148,-0.398 -0.234,-0.773 -0.398,-1.094 -0.082,-0.16 -0.188,-0.168 -0.281,-0.281 -0.102,-0.113 -0.227,-0.313 -0.395,-0.313 -0.148,0 -0.316,0.199 -0.398,0.313 -0.102,0.113 -0.188,0.121 -0.27,0.281 -0.164,0.32 -0.273,0.695 -0.398,1.094 -0.145,0.398 -0.27,0.785 -0.395,1.063 -0.066,0.137 -0.254,0.25 -0.316,0.313 -0.02,-0.008 -0.102,0.031 -0.125,0 C 9.931,33.16 9.931,33.051 9.869,32.91 9.724,32.633 9.455,32.246 9.306,31.847 9.158,31.449 9.079,31.074 8.931,30.753 8.849,30.593 8.74,30.585 8.654,30.472 8.552,30.359 8.384,30.159 8.216,30.159 8.068,30.159 7.9,30.358 7.818,30.472 7.716,30.585 7.63,30.593 7.548,30.753 7.4,31.073 7.318,31.448 7.173,31.847 7.025,32.245 6.86,32.632 6.732,32.91 6.666,33.047 6.505,33.16 6.462,33.223 6.439,33.215 6.357,33.254 6.337,33.223 6.271,33.16 6.271,33.051 6.212,32.91 6.064,32.633 5.927,32.246 5.771,31.847 5.623,31.449 5.404,31.074 5.24,30.753 5.158,30.593 5.056,30.585 4.97,30.472 4.865,30.359 4.74,30.159 4.572,30.159 c -0.145,0 -0.188,0.199 -0.27,0.313 -0.105,0.113 -0.191,0.121 -0.273,0.281 -0.145,0.32 -0.395,0.695 -0.52,1.094 C 3.361,32.245 3.212,32.632 3.068,32.91 3.005,33.047 3.005,33.16 2.943,33.223 2.88,33.286 2.798,33.379 2.798,33.379 2.782,33.379 2.771,33.285 2.693,33.223 2.63,33.16 2.607,33.051 2.548,32.91 2.4,32.633 2.259,32.246 2.107,31.847 1.962,31.449 1.744,31.074 1.58,30.753 1.517,30.593 1.4,30.585 1.31,30.472 1.205,30.359 1.205,30.159 1.037,30.159 m 0,0"
             id="path67"
             inkscape:connector-curvature="0"
             style="fill:#3dc535;fill-opacity:1;fill-rule:nonzero;stroke:none" />
        </g>
      </g>
    </g>
  </g>
</svg>
