<?xml version="1.0" encoding="UTF-8" standalone="no"?>
<svg
   xmlns:dc="http://purl.org/dc/elements/1.1/"
   xmlns:cc="http://creativecommons.org/ns#"
   xmlns:rdf="http://www.w3.org/1999/02/22-rdf-syntax-ns#"
   xmlns:svg="http://www.w3.org/2000/svg"
   xmlns="http://www.w3.org/2000/svg"
   xmlns:xlink="http://www.w3.org/1999/xlink"
   xmlns:sodipodi="http://sodipodi.sourceforge.net/DTD/sodipodi-0.dtd"
   xmlns:inkscape="http://www.inkscape.org/namespaces/inkscape"
   viewBox="0 0 48 48"
   id="svg2"
   version="1.1"
   inkscape:version="0.91 r13725"
   sodipodi:docname="hoos.svg"
   inkscape:export-filename="/home/josh/Code/scraps/files/chats/hoos.png"
   inkscape:export-xdpi="900"
   inkscape:export-ydpi="900">
  <metadata
     id="metadata53">
    <rdf:RDF>
      <cc:Work
         rdf:about="">
        <dc:format>image/svg+xml</dc:format>
        <dc:type
           rdf:resource="http://purl.org/dc/dcmitype/StillImage" />
        <dc:title></dc:title>
      </cc:Work>
    </rdf:RDF>
  </metadata>
  <sodipodi:namedview
     pagecolor="#ffffff"
     bordercolor="#666666"
     borderopacity="1"
     objecttolerance="10"
     gridtolerance="10"
     guidetolerance="10"
     inkscape:pageopacity="0"
     inkscape:pageshadow="2"
     inkscape:window-width="1260"
     inkscape:window-height="962"
     id="namedview51"
     showgrid="false"
     inkscape:zoom="4"
     inkscape:cx="11.610204"
     inkscape:cy="6.9330207"
     inkscape:window-x="10"
     inkscape:window-y="52"
     inkscape:window-maximized="0"
     inkscape:current-layer="svg2">
    <inkscape:grid
       type="xygrid"
       id="grid4267" />
  </sodipodi:namedview>
  <defs
     id="defs4">
    <linearGradient
       inkscape:collect="always"
       id="linearGradient4330">
      <stop
         style="stop-color:#fdc956;stop-opacity:1;"
         offset="0"
         id="stop4332" />
      <stop
         style="stop-color:#fdd06b;stop-opacity:1"
         offset="1"
         id="stop4334" />
    </linearGradient>
    <linearGradient
       id="linearGradient3890"
       x1="1"
       x2="47"
       gradientUnits="userSpaceOnUse">
      <stop
         style="stop-color:#6b4161;stop-opacity:1"
         id="stop7" />
      <stop
         offset="1"
         style="stop-color:#77496c;stop-opacity:1"
         id="stop9" />
    </linearGradient>
    <linearGradient
       id="linearGradient3764"
       x1="1"
       x2="47"
       gradientUnits="userSpaceOnUse"
       gradientTransform="matrix(0,-1,1,0,-1.5e-6,47.999998)">
      <stop
         style="stop-color:#e4e4e4;stop-opacity:1"
         id="stop7-3" />
      <stop
         offset="1"
         style="stop-color:#eee;stop-opacity:1"
         id="stop9-5" />
    </linearGradient>
    <linearGradient
       inkscape:collect="always"
       xlink:href="#linearGradient4330"
       id="linearGradient4336"
       x1="0"
       y1="-24"
       x2="48"
       y2="-24"
       gradientUnits="userSpaceOnUse"
       gradientTransform="translate(-48,48)" />
  </defs>
  <rect
     style="opacity:1;fill:url(#linearGradient4336);fill-opacity:1;fill-rule:nonzero;stroke:none;stroke-width:0.5;stroke-linejoin:round;stroke-miterlimit:4;stroke-dasharray:none;stroke-opacity:1"
     id="rect4269"
     width="48"
     height="48"
     x="-48"
     y="0"
     transform="matrix(0,-1,1,0,0,0)" />
  <path
     d="M 25,12 19,16.154 19,14 c 0,-0.554 -0.446,-1 -1,-1 l -1,0 c -0.554,0 -1,0.446 -1,1 l 0,4 c 0,0.072 0.027,0.135 0.041,0.203 l -4.04,2.797 1,0 0,16 24,0 0,-16 1,0 -13,-9 z"
     style="fill:#000000;fill-opacity:0.09800002;stroke:none"
     id="path27"
     inkscape:connector-curvature="0" />
  <path
     d="m 12,20 24,0 0,16 -24,0 z"
     style="fill:#f9f9f9;fill-opacity:1;stroke:none"
     id="path29"
     inkscape:connector-curvature="0" />
  <path
     d="m 16,12 1,0 c 0.554,0 1,0.446 1,1 l 0,4 c 0,0.554 -0.446,1 -1,1 l -1,0 c -0.554,0 -1,-0.446 -1,-1 l 0,-4 c 0,-0.554 0.446,-1 1,-1 z"
     style="fill:#a39087;fill-opacity:1;stroke:none"
     id="path31"
     inkscape:connector-curvature="0" />
  <path
     d="M 11,20 37,20 24,11 Z"
     style="fill:#eb7668;fill-opacity:1;stroke:none"
     id="path33"
     inkscape:connector-curvature="0" />
  <path
     d="m 22,30 c 1.333,-1.333 2.667,-1.333 4,0 l 0,6 -4,0 z"
     style="fill:#986a4f;fill-opacity:1;stroke:none"
     id="path35"
     inkscape:connector-curvature="0" />
  <path
     d="m 30,22 3,0 c 0.554,0 1,0.446 1,1 l 0,3 c 0,0.554 -0.446,1 -1,1 l -3,0 c -0.554,0 -1,-0.446 -1,-1 l 0,-3 c 0,-0.554 0.446,-1 1,-1 z"
     style="fill:#aaccff;fill-opacity:1;stroke:none"
     id="path37"
     inkscape:connector-curvature="0" />
  <path
     d="m 15,22 3,0 c 0.554,0 1,0.446 1,1 l 0,3 c 0,0.554 -0.446,1 -1,1 l -3,0 c -0.554,0 -1,-0.446 -1,-1 l 0,-3 c 0,-0.554 0.446,-1 1,-1 z"
     style="fill:#aaccff;fill-opacity:1;stroke:none"
     id="path39"
     inkscape:connector-curvature="0" />
  <path
     d="m 30,29 3,0 c 0.554,0 1,0.446 1,1 l 0,3 c 0,0.554 -0.446,1 -1,1 l -3,0 c -0.554,0 -1,-0.446 -1,-1 l 0,-3 c 0,-0.554 0.446,-1 1,-1 z"
     style="fill:#aaccff;fill-opacity:1;stroke:none"
     id="path41"
     inkscape:connector-curvature="0" />
  <path
     d="m 15,29 3,0 c 0.554,0 1,0.446 1,1 l 0,3 c 0,0.554 -0.446,1 -1,1 l -3,0 c -0.554,0 -1,-0.446 -1,-1 l 0,-3 c 0,-0.554 0.446,-1 1,-1 z"
     style="fill:#aaccff;fill-opacity:1;stroke:none"
     id="path43"
     inkscape:connector-curvature="0" />
  <path
     d="m 20,28 8,0 -4,-3 z"
     style="opacity:1;fill:#eb7668;fill-opacity:1;stroke:none"
     id="path45"
     inkscape:connector-curvature="0" />
  <rect
     width="1"
     height="8"
     x="20"
     y="28"
     style="opacity:1;fill:#eb7668;fill-opacity:1;fill-rule:nonzero;stroke:none"
     id="rect47" />
  <rect
     width="1"
     height="8"
     x="27"
     y="28"
     style="opacity:1;fill:#eb7668;fill-opacity:1;fill-rule:nonzero;stroke:none"
     id="rect49" />
</svg>
