<?xml version="1.0" encoding="UTF-8" standalone="no"?>
<svg
   xmlns:dc="http://purl.org/dc/elements/1.1/"
   xmlns:cc="http://creativecommons.org/ns#"
   xmlns:rdf="http://www.w3.org/1999/02/22-rdf-syntax-ns#"
   xmlns:svg="http://www.w3.org/2000/svg"
   xmlns="http://www.w3.org/2000/svg"
   xmlns:xlink="http://www.w3.org/1999/xlink"
   xmlns:sodipodi="http://sodipodi.sourceforge.net/DTD/sodipodi-0.dtd"
   xmlns:inkscape="http://www.inkscape.org/namespaces/inkscape"
   viewBox="0 0 48 48"
   id="svg2"
   version="1.1"
   inkscape:version="0.91 r13725"
   sodipodi:docname="lock.svg"
   inkscape:export-filename="/home/josh/lock.png"
   inkscape:export-xdpi="900"
   inkscape:export-ydpi="900">
  <metadata
     id="metadata77">
    <rdf:RDF>
      <cc:Work
         rdf:about="">
        <dc:format>image/svg+xml</dc:format>
        <dc:type
           rdf:resource="http://purl.org/dc/dcmitype/StillImage" />
        <dc:title />
      </cc:Work>
    </rdf:RDF>
  </metadata>
  <sodipodi:namedview
     pagecolor="#ffffff"
     bordercolor="#666666"
     borderopacity="1"
     objecttolerance="10"
     gridtolerance="10"
     guidetolerance="10"
     inkscape:pageopacity="0"
     inkscape:pageshadow="2"
     inkscape:window-width="1260"
     inkscape:window-height="962"
     id="namedview75"
     showgrid="true"
     inkscape:zoom="9.8333333"
     inkscape:cx="10.612205"
     inkscape:cy="19.85522"
     inkscape:window-x="10"
     inkscape:window-y="52"
     inkscape:window-maximized="0"
     inkscape:current-layer="svg2">
    <inkscape:grid
       type="xygrid"
       id="grid3368" />
  </sodipodi:namedview>
  <defs
     id="defs4">
    <linearGradient
       id="linearGradient3764"
       x1="1"
       x2="47"
       gradientUnits="userSpaceOnUse"
       gradientTransform="matrix(0,-1,1,0,-1.5e-6,47.999998)">
      <stop
         style="stop-color:#c94943;stop-opacity:1"
         id="stop7" />
      <stop
         offset="1"
         style="stop-color:#ce5952;stop-opacity:1"
         id="stop9" />
    </linearGradient>
    <clipPath
       id="clipPath-886807824">
      <g
         transform="translate(0,-1004.3622)"
         id="g12">
        <path
           d="m -24 13 c 0 1.105 -0.672 2 -1.5 2 -0.828 0 -1.5 -0.895 -1.5 -2 0 -1.105 0.672 -2 1.5 -2 0.828 0 1.5 0.895 1.5 2 z"
           transform="matrix(15.333333,0,0,11.5,414.99999,878.8622)"
           style="fill:#1890d0"
           id="path14" />
      </g>
    </clipPath>
    <clipPath
       id="clipPath-897244418">
      <g
         transform="translate(0,-1004.3622)"
         id="g17">
        <path
           d="m -24 13 c 0 1.105 -0.672 2 -1.5 2 -0.828 0 -1.5 -0.895 -1.5 -2 0 -1.105 0.672 -2 1.5 -2 0.828 0 1.5 0.895 1.5 2 z"
           transform="matrix(15.333333,0,0,11.5,414.99999,878.8622)"
           style="fill:#1890d0"
           id="path19" />
      </g>
    </clipPath>
    <linearGradient
       inkscape:collect="always"
       xlink:href="#linearGradient3764"
       id="linearGradient4180"
       x1="0"
       y1="24"
       x2="48"
       y2="24"
       gradientUnits="userSpaceOnUse"
       gradientTransform="translate(-48,0)" />
  </defs>
  <rect
     style="opacity:1;fill:url(#linearGradient4180);fill-opacity:1;fill-rule:nonzero;stroke:none;stroke-width:1;stroke-linejoin:round;stroke-miterlimit:4;stroke-dasharray:none;stroke-opacity:1"
     id="rect3372"
     width="48"
     height="48"
     x="-48"
     y="0"
     transform="matrix(0,-1,1,0,0,0)" />
  <g
     id="g33">
    <g
       style="clip-path:url(#clipPath-886807824)"
       id="g35"
       clip-path="url(#clipPath-886807824)">
      <g
         transform="translate(1,1)"
         id="g37">
        <g
           style="opacity:0.1"
           id="g39">
          <!-- color: #ce5952 -->
          <g
             id="g41">
            <path
               d="m 14.887 17 l 18.227 0 c 0.488 0 0.887 0.398 0.887 0.887 l 0 16.227 c 0 0.488 -0.398 0.887 -0.887 0.887 l -18.227 0 c -0.488 0 -0.887 -0.398 -0.887 -0.887 l 0 -16.227 c 0 -0.488 0.398 -0.887 0.887 -0.887 m 0 0"
               style="fill:#000;fill-opacity:1;stroke:none;fill-rule:nonzero"
               id="path43" />
            <path
               d="m 17 18 c 0 -4 2 -8 7 -8 c 5 0 7 4 7 8 c 0 1 -1 1 -1 0 c 0 -3 -2 -7 -6 -7 c -4 0 -6 4 -6 7 c 0 1 -1 1 -1 0 m 0 0"
               style="fill:#000;fill-opacity:1;stroke:none;fill-rule:nonzero"
               id="path45" />
          </g>
        </g>
      </g>
    </g>
  </g>
  <g
     id="g47">
    <g
       style="clip-path:url(#clipPath-897244418)"
       id="g49"
       clip-path="url(#clipPath-897244418)">
      <!-- color: #ce5952 -->
      <g
         id="g51">
        <path
           d="m 14.887,17 18.227,0 c 0.488,0 0.887,0.398 0.887,0.887 l 0,16.227 c 0,0.488 -0.398,0.887 -0.887,0.887 l -18.227,0 C 14.399,35.001 14,34.603 14,34.114 L 14,17.887 C 14,17.399 14.398,17 14.887,17 m 0,0"
           style="fill:#eec84a;fill-opacity:1;stroke:none;fill-rule:nonzero"
           id="path53" />
        <path
           d="m 14.887,19 18.227,0 c 0.488,0 0.887,0.398 0.887,0.887 l 0,0.227 c 0,0.488 -0.398,0.887 -0.887,0.887 l -18.227,0 C 14.399,21.001 14,20.603 14,20.114 l 0,-0.227 C 14,19.399 14.398,19 14.887,19 m 0,0"
           style="fill:#fbdb70;fill-opacity:1;stroke:none;fill-rule:nonzero"
           id="path55" />
        <path
           d="m 14.887,17 18.227,0 c 0.488,0 0.887,0.398 0.887,0.887 l 0,1.227 c 0,0.488 -0.398,0.887 -0.887,0.887 l -18.227,0 C 14.399,20.001 14,19.603 14,19.114 l 0,-1.227 C 14,17.399 14.398,17 14.887,17 m 0,0"
           style="fill:#d4b142;fill-opacity:1;stroke:none;fill-rule:nonzero"
           id="path57" />
        <path
           d="m 26 26 c 0 1.105 -0.895 2 -2 2 -1.105 0 -2 -0.895 -2 -2 0 -1.105 0.895 -2 2 -2 1.105 0 2 0.895 2 2 m 0 0"
           style="fill:#705d22;fill-opacity:1;stroke:none;fill-rule:nonzero"
           id="path59" />
        <path
           d="m 23 27 -2 5 6 0 -2 -5 m -2 0"
           style="fill:#705d22;fill-opacity:1;stroke:none;fill-rule:nonzero"
           id="path61" />
        <path
           d="M 21.406,31 21,32 l 6,0 -0.406,-1 m -5.188,0"
           style="fill:#ffd659;fill-opacity:1;stroke:none;fill-rule:nonzero"
           id="path63" />
        <path
           d="m 17 18 c 0 -4 2 -8 7 -8 5 0 7 4 7 8 0 1 -1 1 -1 0 0 -3 -2 -7 -6 -7 -4 0 -6 4 -6 7 0 1 -1 1 -1 0 m 0 0"
           style="fill:#ccc;fill-opacity:1;stroke:none;fill-rule:nonzero"
           id="path65" />
        <path
           d="M 19,18.5 C 19,18.777 18.328,19 17.5,19 16.672,19 16,18.777 16,18.5 16,18.223 16.672,18 17.5,18 c 0.828,0 1.5,0.223 1.5,0.5 m 0,0"
           style="fill:#4a4a4a;fill-opacity:1;stroke:none;fill-rule:nonzero"
           id="path67" />
        <path
           d="M 32,18.5 C 32,18.777 31.328,19 30.5,19 29.672,19 29,18.777 29,18.5 29,18.223 29.672,18 30.5,18 c 0.828,0 1.5,0.223 1.5,0.5 m 0,0"
           style="fill:#4a4a4a;fill-opacity:1;stroke:none;fill-rule:nonzero"
           id="path69" />
      </g>
    </g>
  </g>
</svg>
