<?xml version="1.0" encoding="UTF-8" standalone="no"?>
<svg
   xmlns:dc="http://purl.org/dc/elements/1.1/"
   xmlns:cc="http://creativecommons.org/ns#"
   xmlns:rdf="http://www.w3.org/1999/02/22-rdf-syntax-ns#"
   xmlns:svg="http://www.w3.org/2000/svg"
   xmlns="http://www.w3.org/2000/svg"
   xmlns:xlink="http://www.w3.org/1999/xlink"
   xmlns:sodipodi="http://sodipodi.sourceforge.net/DTD/sodipodi-0.dtd"
   xmlns:inkscape="http://www.inkscape.org/namespaces/inkscape"
   viewBox="0 0 48 48"
   id="svg2"
   version="1.1"
   inkscape:version="0.91 r13725"
   sodipodi:docname="math.svg"
   inkscape:export-filename="/home/josh/Code/scraps/files/chats/math.png"
   inkscape:export-xdpi="900"
   inkscape:export-ydpi="900">
  <metadata
     id="metadata77">
    <rdf:RDF>
      <cc:Work
         rdf:about="">
        <dc:format>image/svg+xml</dc:format>
        <dc:type
           rdf:resource="http://purl.org/dc/dcmitype/StillImage" />
        <dc:title />
      </cc:Work>
    </rdf:RDF>
  </metadata>
  <sodipodi:namedview
     pagecolor="#ffffff"
     bordercolor="#666666"
     borderopacity="1"
     objecttolerance="10"
     gridtolerance="10"
     guidetolerance="10"
     inkscape:pageopacity="0"
     inkscape:pageshadow="2"
     inkscape:window-width="1260"
     inkscape:window-height="962"
     id="namedview75"
     showgrid="true"
     inkscape:zoom="9.8333333"
     inkscape:cx="2.811182"
     inkscape:cy="29.060621"
     inkscape:window-x="10"
     inkscape:window-y="52"
     inkscape:window-maximized="0"
     inkscape:current-layer="svg2">
    <inkscape:grid
       type="xygrid"
       id="grid3368" />
  </sodipodi:namedview>
  <defs
     id="defs4">
    <linearGradient
       id="linearGradient3764"
       x1="1"
       x2="47"
       gradientUnits="userSpaceOnUse"
       gradientTransform="matrix(0,-1,1,0,-1.5e-6,47.999998)">
      <stop
         style="stop-color:#e04c8b;stop-opacity:1"
         id="stop7" />
      <stop
         offset="1"
         style="stop-color:#e35e97;stop-opacity:1"
         id="stop9" />
    </linearGradient>
    <clipPath
       id="clipPath-568471406">
      <g
         transform="translate(0,-1004.3622)"
         id="g12">
        <path
           d="m -24 13 c 0 1.105 -0.672 2 -1.5 2 -0.828 0 -1.5 -0.895 -1.5 -2 0 -1.105 0.672 -2 1.5 -2 0.828 0 1.5 0.895 1.5 2 z"
           transform="matrix(15.333333,0,0,11.5,414.99999,878.8622)"
           style="fill:#1890d0"
           id="path14" />
      </g>
    </clipPath>
    <clipPath
       id="clipPath-580235580">
      <g
         transform="translate(0,-1004.3622)"
         id="g17">
        <path
           d="m -24 13 c 0 1.105 -0.672 2 -1.5 2 -0.828 0 -1.5 -0.895 -1.5 -2 0 -1.105 0.672 -2 1.5 -2 0.828 0 1.5 0.895 1.5 2 z"
           transform="matrix(15.333333,0,0,11.5,414.99999,878.8622)"
           style="fill:#1890d0"
           id="path19" />
      </g>
    </clipPath>
    <linearGradient
       inkscape:collect="always"
       xlink:href="#linearGradient3764"
       id="linearGradient4178"
       x1="0"
       y1="24"
       x2="48"
       y2="24"
       gradientUnits="userSpaceOnUse"
       gradientTransform="translate(-48,0)" />
  </defs>
  <rect
     style="opacity:1;fill:url(#linearGradient4178);fill-opacity:1;fill-rule:nonzero;stroke:none;stroke-width:1;stroke-linejoin:round;stroke-miterlimit:4;stroke-dasharray:none;stroke-opacity:1"
     id="rect3370"
     width="48"
     height="48"
     x="-48"
     y="0"
     transform="matrix(0,-1,1,0,0,0)" />
  <g
     id="g33">
    <g
       style="clip-path:url(#clipPath-568471406)"
       id="g35"
       clip-path="url(#clipPath-568471406)">
      <g
         transform="translate(1,1)"
         id="g37">
        <g
           style="opacity:0.1"
           id="g39">
          <!-- color: #e35e97 -->
          <g
             id="g41">
            <path
               d="m 13.887 11 l 20.227 0 c 0.492 0 0.887 0.395 0.887 0.883 l 0 24.23 c 0 0.488 -0.395 0.887 -0.887 0.887 l -20.227 0 c -0.488 0 -0.887 -0.398 -0.887 -0.887 l 0 -24.23 c 0 -0.488 0.398 -0.883 0.887 -0.883 m 0 0"
               style="fill:#000;fill-opacity:1;stroke:none;fill-rule:nonzero"
               id="path43" />
          </g>
        </g>
      </g>
    </g>
  </g>
  <g
     id="g45">
    <g
       style="clip-path:url(#clipPath-580235580)"
       id="g47"
       clip-path="url(#clipPath-580235580)">
      <!-- color: #e35e97 -->
      <g
         id="g49">
        <path
           d="m 13.887,11 20.227,0 c 0.492,0 0.887,0.395 0.887,0.883 l 0,24.23 C 35.001,36.601 34.606,37 34.114,37 L 13.887,37 C 13.399,37 13,36.602 13,36.113 l 0,-24.23 C 13,11.395 13.398,11 13.887,11 m 0,0"
           style="fill:#eaeaea;fill-opacity:1;stroke:none;fill-rule:nonzero"
           id="path51" />
        <path
           d="m 15.441,31 3.113,0 c 0.246,0 0.445,0.199 0.445,0.441 l 0,3.117 c 0,0.242 -0.199,0.441 -0.445,0.441 l -3.113,0 C 15.195,34.999 15,34.8 15,34.558 l 0,-3.117 C 15,31.199 15.195,31 15.441,31 m 0,0"
           style="fill:#959a9b;fill-opacity:1;stroke:none;fill-rule:nonzero"
           id="path53" />
        <path
           d="m 15.441,25.02 3.113,0 c 0.246,0 0.445,0.199 0.445,0.441 l 0,3.117 c 0,0.242 -0.199,0.441 -0.445,0.441 l -3.113,0 C 15.195,29.019 15,28.82 15,28.578 l 0,-3.117 c 0,-0.242 0.195,-0.441 0.441,-0.441 m 0,0"
           style="fill:#959a9b;fill-opacity:1;stroke:none;fill-rule:nonzero"
           id="path55" />
        <path
           d="m 15.441,19 3.113,0 c 0.246,0 0.445,0.199 0.445,0.441 l 0,3.117 c 0,0.242 -0.199,0.441 -0.445,0.441 l -3.113,0 C 15.195,22.999 15,22.8 15,22.558 l 0,-3.117 C 15,19.199 15.195,19 15.441,19 m 0,0"
           style="fill:#959a9b;fill-opacity:1;stroke:none;fill-rule:nonzero"
           id="path57" />
        <path
           d="m 15.441,13 17.11,0 c 0.246,0 0.445,0.199 0.445,0.441 l 0,3.117 c 0,0.242 -0.199,0.441 -0.445,0.441 l -17.11,0 C 15.195,16.999 15,16.8 15,16.558 l 0,-3.117 C 15,13.199 15.195,13 15.441,13 m 0,0"
           style="fill:#76a3cf;fill-opacity:1;stroke:none;fill-rule:nonzero"
           id="path59" />
        <path
           d="m 22.441,31 3.117,0 c 0.242,0 0.441,0.199 0.441,0.441 l 0,3.117 c 0,0.242 -0.199,0.441 -0.441,0.441 l -3.117,0 C 22.199,34.999 22,34.8 22,34.558 l 0,-3.117 C 22,31.199 22.199,31 22.441,31 m 0,0"
           style="fill:#959a9b;fill-opacity:1;stroke:none;fill-rule:nonzero"
           id="path61" />
        <path
           d="m 22.441,25.02 3.117,0 c 0.242,0 0.441,0.199 0.441,0.441 l 0,3.117 c 0,0.242 -0.199,0.441 -0.441,0.441 l -3.117,0 C 22.199,29.019 22,28.82 22,28.578 l 0,-3.117 c 0,-0.242 0.199,-0.441 0.441,-0.441 m 0,0"
           style="fill:#959a9b;fill-opacity:1;stroke:none;fill-rule:nonzero"
           id="path63" />
        <path
           d="m 22.441,19 3.117,0 c 0.242,0 0.441,0.199 0.441,0.441 l 0,3.117 c 0,0.242 -0.199,0.441 -0.441,0.441 l -3.117,0 C 22.199,22.999 22,22.8 22,22.558 l 0,-3.117 C 22,19.199 22.199,19 22.441,19 m 0,0"
           style="fill:#959a9b;fill-opacity:1;stroke:none;fill-rule:nonzero"
           id="path65" />
        <path
           d="m 29.441,19 3.113,0 c 0.246,0 0.445,0.199 0.445,0.441 l 0,3.117 c 0,0.242 -0.199,0.441 -0.445,0.441 l -3.113,0 C 29.195,22.999 29,22.8 29,22.558 l 0,-3.117 C 29,19.199 29.195,19 29.441,19 m 0,0"
           style="fill:#959a9b;fill-opacity:1;stroke:none;fill-rule:nonzero"
           id="path67" />
        <path
           d="m 29.441,25.02 3.113,0 c 0.246,0 0.445,0.199 0.445,0.441 l 0,9.113 c 0,0.246 -0.199,0.445 -0.445,0.445 l -3.113,0 C 29.195,35.019 29,34.82 29,34.574 l 0,-9.113 c 0,-0.242 0.195,-0.441 0.441,-0.441 m 0,0"
           style="fill:#ec7f20;fill-opacity:1;stroke:none;fill-rule:nonzero"
           id="path69" />
      </g>
    </g>
  </g>
</svg>
